<mxfile host="app.diagrams.net" modified="2024-01-31T12:14:36.129Z" agent="Mozilla/5.0 (Windows NT 10.0; Win64; x64) AppleWebKit/537.36 (KHTML, like Gecko) Chrome/121.0.0.0 Safari/537.36 Edg/121.0.0.0" etag="J5AaV0Jn19orNQkbbQgS" version="23.0.2" type="github">
  <diagram name="Страница — 1" id="YAEtq28-chyO94Poa2OC">
    <mxGraphModel dx="906" dy="571" grid="1" gridSize="10" guides="1" tooltips="1" connect="1" arrows="1" fold="1" page="1" pageScale="1" pageWidth="827" pageHeight="1169" math="0" shadow="0">
      <root>
        <mxCell id="0" />
        <mxCell id="1" parent="0" />
        <mxCell id="zbwAHKaqkKXnbk_BlWzs-1" value="" style="rounded=0;whiteSpace=wrap;html=1;" parent="1" vertex="1">
          <mxGeometry x="170" y="90" width="120" height="60" as="geometry" />
        </mxCell>
        <mxCell id="zbwAHKaqkKXnbk_BlWzs-2" value="Студенты:" style="text;html=1;strokeColor=none;fillColor=none;align=center;verticalAlign=middle;whiteSpace=wrap;rounded=0;" parent="1" vertex="1">
          <mxGeometry x="60" y="330" width="60" height="30" as="geometry" />
        </mxCell>
        <mxCell id="zbwAHKaqkKXnbk_BlWzs-3" value="Главные:" style="text;html=1;strokeColor=none;fillColor=none;align=center;verticalAlign=middle;whiteSpace=wrap;rounded=0;" parent="1" vertex="1">
          <mxGeometry x="60" y="380" width="60" height="30" as="geometry" />
        </mxCell>
        <mxCell id="zbwAHKaqkKXnbk_BlWzs-4" value="Считают количество растений в ящике одного генотипа, и количество отмороженных&amp;nbsp;" style="text;html=1;strokeColor=none;fillColor=none;align=center;verticalAlign=middle;whiteSpace=wrap;rounded=0;" parent="1" vertex="1">
          <mxGeometry x="120" y="330" width="300" height="30" as="geometry" />
        </mxCell>
        <mxCell id="zbwAHKaqkKXnbk_BlWzs-5" value="Считают количество растений в ящике одного генотипа, и количество отмороженных&amp;nbsp;" style="text;html=1;strokeColor=none;fillColor=none;align=center;verticalAlign=middle;whiteSpace=wrap;rounded=0;" parent="1" vertex="1">
          <mxGeometry x="120" y="380" width="300" height="30" as="geometry" />
        </mxCell>
        <mxCell id="zbwAHKaqkKXnbk_BlWzs-7" style="edgeStyle=orthogonalEdgeStyle;rounded=0;orthogonalLoop=1;jettySize=auto;html=1;entryX=0;entryY=0.5;entryDx=0;entryDy=0;" parent="1" source="zbwAHKaqkKXnbk_BlWzs-6" target="zbwAHKaqkKXnbk_BlWzs-1" edge="1">
          <mxGeometry relative="1" as="geometry" />
        </mxCell>
        <mxCell id="zbwAHKaqkKXnbk_BlWzs-6" value="Пользователь заходит" style="ellipse;whiteSpace=wrap;html=1;aspect=fixed;" parent="1" vertex="1">
          <mxGeometry x="20" y="80" width="80" height="80" as="geometry" />
        </mxCell>
        <mxCell id="zbwAHKaqkKXnbk_BlWzs-8" value="Ящик" style="swimlane;whiteSpace=wrap;html=1;" parent="1" vertex="1">
          <mxGeometry x="10" y="640" width="200" height="200" as="geometry" />
        </mxCell>
        <mxCell id="zbwAHKaqkKXnbk_BlWzs-41" value="Номер ящика" style="rounded=0;whiteSpace=wrap;html=1;" parent="zbwAHKaqkKXnbk_BlWzs-8" vertex="1">
          <mxGeometry y="20" width="200" height="40" as="geometry" />
        </mxCell>
        <mxCell id="zbwAHKaqkKXnbk_BlWzs-15" value="Линия" style="swimlane;whiteSpace=wrap;html=1;" parent="1" vertex="1">
          <mxGeometry x="560" y="770" width="200" height="200" as="geometry" />
        </mxCell>
        <mxCell id="zbwAHKaqkKXnbk_BlWzs-38" value="Название" style="rounded=0;whiteSpace=wrap;html=1;" parent="zbwAHKaqkKXnbk_BlWzs-15" vertex="1">
          <mxGeometry y="20" width="200" height="30" as="geometry" />
        </mxCell>
        <mxCell id="zbwAHKaqkKXnbk_BlWzs-42" value="Оценка" style="rounded=0;whiteSpace=wrap;html=1;" parent="zbwAHKaqkKXnbk_BlWzs-15" vertex="1">
          <mxGeometry y="50" width="200" height="30" as="geometry" />
        </mxCell>
        <mxCell id="zbwAHKaqkKXnbk_BlWzs-43" value="Доп. свойства" style="rounded=0;whiteSpace=wrap;html=1;" parent="zbwAHKaqkKXnbk_BlWzs-15" vertex="1">
          <mxGeometry y="80" width="200" height="30" as="geometry" />
        </mxCell>
        <mxCell id="zbwAHKaqkKXnbk_BlWzs-44" value="Является ли шаблонной?" style="rounded=0;whiteSpace=wrap;html=1;" parent="zbwAHKaqkKXnbk_BlWzs-15" vertex="1">
          <mxGeometry y="110" width="200" height="30" as="geometry" />
        </mxCell>
        <mxCell id="zbwAHKaqkKXnbk_BlWzs-45" value="Оценка отностиельно шаблонной" style="rounded=0;whiteSpace=wrap;html=1;" parent="zbwAHKaqkKXnbk_BlWzs-15" vertex="1">
          <mxGeometry y="140" width="200" height="30" as="geometry" />
        </mxCell>
        <mxCell id="zbwAHKaqkKXnbk_BlWzs-22" style="edgeStyle=orthogonalEdgeStyle;rounded=0;orthogonalLoop=1;jettySize=auto;html=1;exitX=0;exitY=0.5;exitDx=0;exitDy=0;entryX=0.5;entryY=0;entryDx=0;entryDy=0;" parent="1" source="zbwAHKaqkKXnbk_BlWzs-24" target="zbwAHKaqkKXnbk_BlWzs-8" edge="1">
          <mxGeometry relative="1" as="geometry" />
        </mxCell>
        <mxCell id="zbwAHKaqkKXnbk_BlWzs-23" style="edgeStyle=orthogonalEdgeStyle;rounded=0;orthogonalLoop=1;jettySize=auto;html=1;entryX=0.5;entryY=0;entryDx=0;entryDy=0;exitX=1;exitY=0.5;exitDx=0;exitDy=0;" parent="1" source="zbwAHKaqkKXnbk_BlWzs-25" target="zbwAHKaqkKXnbk_BlWzs-15" edge="1">
          <mxGeometry relative="1" as="geometry">
            <Array as="points">
              <mxPoint x="540" y="805" />
              <mxPoint x="540" y="750" />
              <mxPoint x="660" y="750" />
            </Array>
          </mxGeometry>
        </mxCell>
        <mxCell id="zbwAHKaqkKXnbk_BlWzs-21" value="Текущее значение" style="swimlane;whiteSpace=wrap;html=1;" parent="1" vertex="1">
          <mxGeometry x="280" y="740" width="200" height="270" as="geometry" />
        </mxCell>
        <mxCell id="zbwAHKaqkKXnbk_BlWzs-24" value="Ящик" style="rounded=0;whiteSpace=wrap;html=1;" parent="zbwAHKaqkKXnbk_BlWzs-21" vertex="1">
          <mxGeometry y="20" width="200" height="30" as="geometry" />
        </mxCell>
        <mxCell id="zbwAHKaqkKXnbk_BlWzs-25" value="Линия" style="rounded=0;whiteSpace=wrap;html=1;" parent="zbwAHKaqkKXnbk_BlWzs-21" vertex="1">
          <mxGeometry y="50" width="200" height="30" as="geometry" />
        </mxCell>
        <mxCell id="zbwAHKaqkKXnbk_BlWzs-26" value="Оценка отр." style="rounded=0;whiteSpace=wrap;html=1;" parent="zbwAHKaqkKXnbk_BlWzs-21" vertex="1">
          <mxGeometry y="110" width="200" height="30" as="geometry" />
        </mxCell>
        <mxCell id="zbwAHKaqkKXnbk_BlWzs-27" value="Всего растений" style="rounded=0;whiteSpace=wrap;html=1;" parent="zbwAHKaqkKXnbk_BlWzs-21" vertex="1">
          <mxGeometry y="140" width="200" height="30" as="geometry" />
        </mxCell>
        <mxCell id="zbwAHKaqkKXnbk_BlWzs-28" value="Живые растения" style="rounded=0;whiteSpace=wrap;html=1;" parent="zbwAHKaqkKXnbk_BlWzs-21" vertex="1">
          <mxGeometry y="170" width="200" height="30" as="geometry" />
        </mxCell>
        <mxCell id="zbwAHKaqkKXnbk_BlWzs-29" value="% живых" style="rounded=0;whiteSpace=wrap;html=1;" parent="zbwAHKaqkKXnbk_BlWzs-21" vertex="1">
          <mxGeometry y="200" width="200" height="30" as="geometry" />
        </mxCell>
        <mxCell id="zbwAHKaqkKXnbk_BlWzs-30" value="Повторность" style="rounded=0;whiteSpace=wrap;html=1;" parent="zbwAHKaqkKXnbk_BlWzs-21" vertex="1">
          <mxGeometry y="80" width="200" height="30" as="geometry" />
        </mxCell>
        <mxCell id="zbwAHKaqkKXnbk_BlWzs-35" style="edgeStyle=orthogonalEdgeStyle;rounded=0;orthogonalLoop=1;jettySize=auto;html=1;entryX=0;entryY=0.5;entryDx=0;entryDy=0;" parent="1" source="zbwAHKaqkKXnbk_BlWzs-32" target="zbwAHKaqkKXnbk_BlWzs-34" edge="1">
          <mxGeometry relative="1" as="geometry" />
        </mxCell>
        <mxCell id="zbwAHKaqkKXnbk_BlWzs-32" value="Повторность" style="swimlane;whiteSpace=wrap;html=1;" parent="1" vertex="1">
          <mxGeometry x="560" y="440" width="200" height="200" as="geometry" />
        </mxCell>
        <mxCell id="zbwAHKaqkKXnbk_BlWzs-36" value="Номер повторности" style="rounded=0;whiteSpace=wrap;html=1;" parent="zbwAHKaqkKXnbk_BlWzs-32" vertex="1">
          <mxGeometry y="20" width="200" height="40" as="geometry" />
        </mxCell>
        <mxCell id="zbwAHKaqkKXnbk_BlWzs-37" value="Режим" style="rounded=0;whiteSpace=wrap;html=1;" parent="zbwAHKaqkKXnbk_BlWzs-32" vertex="1">
          <mxGeometry y="60" width="200" height="40" as="geometry" />
        </mxCell>
        <mxCell id="zbwAHKaqkKXnbk_BlWzs-33" style="edgeStyle=orthogonalEdgeStyle;rounded=0;orthogonalLoop=1;jettySize=auto;html=1;entryX=0;entryY=0.5;entryDx=0;entryDy=0;" parent="1" source="zbwAHKaqkKXnbk_BlWzs-30" target="zbwAHKaqkKXnbk_BlWzs-32" edge="1">
          <mxGeometry relative="1" as="geometry">
            <Array as="points">
              <mxPoint x="510" y="835" />
              <mxPoint x="510" y="540" />
            </Array>
          </mxGeometry>
        </mxCell>
        <mxCell id="zbwAHKaqkKXnbk_BlWzs-34" value="Режим" style="swimlane;whiteSpace=wrap;html=1;" parent="1" vertex="1">
          <mxGeometry x="827" y="200" width="200" height="200" as="geometry" />
        </mxCell>
        <mxCell id="zbwAHKaqkKXnbk_BlWzs-39" value="Температура" style="rounded=0;whiteSpace=wrap;html=1;" parent="zbwAHKaqkKXnbk_BlWzs-34" vertex="1">
          <mxGeometry y="20" width="200" height="30" as="geometry" />
        </mxCell>
      </root>
    </mxGraphModel>
  </diagram>
</mxfile>
